<svg width="572" height="107" viewBox="0 0 572 107" fill="none" xmlns="http://www.w3.org/2000/svg">
<g filter="url(#filter0_d_1609_4)">
<path d="M12.248 8.784V65.232C12.248 73.168 14.168 79.056 18.008 82.896C21.9333 86.736 27.352 88.656 34.264 88.656C41.0907 88.656 46.424 86.736 50.264 82.896C54.1893 79.056 56.152 73.168 56.152 65.232V8.784H67.8V65.104C67.8 72.528 66.3067 78.8 63.32 83.92C60.3333 88.9547 56.28 92.7093 51.16 95.184C46.1253 97.6587 40.4507 98.896 34.136 98.896C27.8213 98.896 22.104 97.6587 16.984 95.184C11.9493 92.7093 7.93867 88.9547 4.952 83.92C2.05067 78.8 0.6 72.528 0.6 65.104V8.784H12.248ZM98.879 39.248C100.927 35.2373 103.828 32.1227 107.583 29.904C111.423 27.6853 116.074 26.576 121.535 26.576V38.608H118.463C105.407 38.608 98.879 45.6907 98.879 59.856V98H87.231V27.856H98.879V39.248ZM169.157 26.576C177.69 26.576 184.602 29.1787 189.893 34.384C195.184 39.504 197.829 46.928 197.829 56.656V98H186.309V58.32C186.309 51.3227 184.56 45.9893 181.061 42.32C177.562 38.5653 172.784 36.688 166.725 36.688C160.581 36.688 155.674 38.608 152.005 42.448C148.421 46.288 146.629 51.8773 146.629 59.216V98H134.981V27.856H146.629V37.84C148.933 34.256 152.048 31.4827 155.973 29.52C159.984 27.5573 164.378 26.576 169.157 26.576ZM222.872 16.464C220.653 16.464 218.776 15.696 217.24 14.16C215.704 12.624 214.936 10.7467 214.936 8.52799C214.936 6.30933 215.704 4.432 217.24 2.896C218.776 1.36 220.653 0.591995 222.872 0.591995C225.005 0.591995 226.797 1.36 228.248 2.896C229.784 4.432 230.552 6.30933 230.552 8.52799C230.552 10.7467 229.784 12.624 228.248 14.16C226.797 15.696 225.005 16.464 222.872 16.464ZM228.504 27.856V98H216.856V27.856H228.504ZM287.524 98L260.004 67.024V98H248.356V3.28H260.004V58.96L287.012 27.856H303.268L270.244 62.8L303.396 98H287.524ZM317.943 98.768C315.724 98.768 313.847 98 312.311 96.464C310.775 94.928 310.007 93.0507 310.007 90.832C310.007 88.6133 310.775 86.736 312.311 85.2C313.847 83.664 315.724 82.896 317.943 82.896C320.076 82.896 321.868 83.664 323.319 85.2C324.855 86.736 325.623 88.6133 325.623 90.832C325.623 93.0507 324.855 94.928 323.319 96.464C321.868 98 320.076 98.768 317.943 98.768ZM416.498 98H398.578L358.002 36.688V98H340.082V8.52799H358.002L398.578 69.968V8.52799H416.498V98ZM452.127 23.12V45.52H482.207V59.728H452.127V83.408H486.047V98H434.207V8.52799H486.047V23.12H452.127ZM563.132 8.656V23.12H539.324V98H521.404V23.12H497.596V8.656H563.132Z" fill="white"/>
</g>
<defs>
<filter id="filter0_d_1609_4" x="0.599976" y="0.592041" width="570.532" height="106.304" filterUnits="userSpaceOnUse" color-interpolation-filters="sRGB">
<feFlood flood-opacity="0" result="BackgroundImageFix"/>
<feColorMatrix in="SourceAlpha" type="matrix" values="0 0 0 0 0 0 0 0 0 0 0 0 0 0 0 0 0 0 127 0" result="hardAlpha"/>
<feOffset dx="4" dy="4"/>
<feGaussianBlur stdDeviation="2"/>
<feComposite in2="hardAlpha" operator="out"/>
<feColorMatrix type="matrix" values="0 0 0 0 0 0 0 0 0 0 0 0 0 0 0 0 0 0 0.25 0"/>
<feBlend mode="normal" in2="BackgroundImageFix" result="effect1_dropShadow_1609_4"/>
<feBlend mode="normal" in="SourceGraphic" in2="effect1_dropShadow_1609_4" result="shape"/>
</filter>
</defs>
</svg>
